<?xml version="1.0" encoding="UTF-8" standalone="no"?>
<!DOCTYPE svg  PUBLIC '-//W3C//DTD SVG 1.1//EN'  'http://www.w3.org/Graphics/SVG/1.1/DTD/svg11.dtd'>
<svg xmlns="http://www.w3.org/2000/svg">
<defs>
<font id="Apercu-Medium" horiz-adv-x="580">
<font-face underline-position="-50" font-weight="500" descent="-200" panose-1="2 0 6 6 4 0 0 2 0 4" units-per-em="1000" unicode-range="U+0020-25CA" bbox="-43 -251 1185 951" x-height="504" underline-thickness="50" font-family="Apercu" ascent="800" cap-height="700"/>
<missing-glyph horiz-adv-x="1000"/>
<glyph glyph-name=".notdef" horiz-adv-x="1000"/>
<glyph glyph-name=".null" horiz-adv-x="0"/>
<glyph glyph-name="nonmarkingreturn" horiz-adv-x="333"/>
<glyph glyph-name="space" horiz-adv-x="258" unicode=" "/>
<glyph glyph-name="exclam" horiz-adv-x="351" unicode="!" d="M123 17q-21 21 -21 54q0 32 21 53q22 22 55 22q32 0 54 -22t22 -53q0 -32 -22 -54q-21 -21 -54 -21q-34 0 -55 21zM134 221l-27 479h142l-27 -479h-88z"/>
<glyph glyph-name="quotedbl" horiz-adv-x="469" unicode='&quot;' d="M355 469h-70l-30 239h130zM184 469h-70l-30 239h130z"/>
<glyph glyph-name="numbersign" horiz-adv-x="726" unicode="#" d="M439 417h-125l-27 -134h125zM226 417h-118v82h135l41 201h88l-41 -201h125l41 201h88l-41 -201h114v-82h-131l-27 -134h118v-82h-135l-41 -201h-88l41 201h-125l-41 -201h-88l41 201h-114v82h131z"/>
<glyph glyph-name="dollar" horiz-adv-x="536" unicode="$" d="M460 590l-89 -59q-41 77 -104 77q-33 0 -53 -21.5t-20 -54.5q0 -64 106 -114q34 -15 53.5 -24.5t50 -29.5t47.5 -39.5t30 -50.5t13 -67q0 -82 -46.5 -139t-123.5 -71v-87h-100v87q-69 14 -116.5 64.5t-63.5 125.5l90 57q37 -148 141 -148q47 0 77 29.5t30 75.5 q0 32 -22 56.5t-55 40t-72 35.5t-72 41.5t-55 60t-22 89.5q0 66 39 116q39 49 101 63v87h100v-89q87 -23 136 -111z"/>
<glyph glyph-name="percent" horiz-adv-x="840" unicode="%" d="M128 13l539 720l58 -45l-539 -720zM569 207q-20 -20 -20 -55q0 -36 20 -56q19 -21 54 -21t54 21q20 20 20 56q0 35 -20 55q-19 22 -54 22t-54 -22zM508 38q-47 47 -47 114q0 66 47 113t115 47t115 -47t47 -113q0 -67 -47 -114q-46 -46 -115 -46t-115 46zM163 603 q-20 -20 -20 -55q0 -36 20 -56q19 -21 54 -21t54 21q20 20 20 56q0 35 -20 55q-19 22 -54 22t-54 -22zM102 434q-47 47 -47 114q0 66 47 113t115 47t115 -47t47 -113q0 -67 -47 -114q-46 -46 -115 -46t-115 46z"/>
<glyph glyph-name="ampersand" horiz-adv-x="683" unicode="&amp;" d="M242 555q0 -48 37 -95q85 40 85 100q0 27 -16.5 41.5t-44.5 14.5q-27 0 -44 -17t-17 -44zM412 143l-157 205q-40 -22 -63.5 -61.5t-23.5 -88.5q0 -50 31 -80t80 -30q84 0 133 55zM144 559q0 61 44 105q46 44 115 44q73 0 116 -43q43 -42 43 -97q0 -112 -123 -177 l128 -167q13 21 47 115l63 -71q-20 -68 -52 -120l112 -148h-117l-52 71q-30 -35 -83 -57t-105 -22q-94 0 -153 58q-59 59 -59 153q0 145 129 220q-53 73 -53 136z"/>
<glyph glyph-name="quotesingle" horiz-adv-x="298" unicode="&apos;" d="M184 469h-70l-30 239h130z"/>
<glyph glyph-name="parenleft" horiz-adv-x="304" unicode="(" d="M173 750h104q-55 -84 -81 -177q-25 -90 -25 -223t25 -224q26 -92 81 -176h-104q-50 83 -79 176q-27 90 -27 224t27 224q29 93 79 176z"/>
<glyph glyph-name="parenright" horiz-adv-x="304" unicode=")" d="M27 750h104q51 -85 78 -176q28 -88 28 -224t-28 -224q-27 -91 -78 -176h-104q54 81 80 176t26 224q0 130 -26 223q-26 96 -80 177z"/>
<glyph glyph-name="asterisk" horiz-adv-x="484" unicode="*" d="M198 708h88v-124l119 39l25 -85l-118 -39l74 -101l-69 -51l-75 100l-75 -100l-69 51l74 101l-118 39l25 85l119 -39v124z"/>
<glyph glyph-name="plus" horiz-adv-x="564" unicode="+" d="M236 363v176h92v-176h177v-92h-177v-177h-92v177h-176v92h176z"/>
<glyph glyph-name="comma" horiz-adv-x="343" unicode="," d="M140 -132h-78l71 260h143z"/>
<glyph glyph-name="hyphen" horiz-adv-x="489" unicode="-" d="M421 271h-353v92h353v-92z"/>
<glyph glyph-name="period" horiz-adv-x="318" unicode="." d="M106 121q22 22 53 22q30 0 52 -22t22 -52q0 -31 -22 -53q-21 -21 -52 -21q-32 0 -53 21t-21 53q0 31 21 52z"/>
<glyph glyph-name="slash" horiz-adv-x="547" unicode="/" d="M13 -50l436 800h103l-436 -800h-103z"/>
<glyph glyph-name="zero" horiz-adv-x="632" unicode="0" d="M425 544q-36 68 -109 68q-72 0 -110 -68q-36 -67 -36 -194q0 -126 36 -194q38 -68 110 -68q73 0 109 68q37 67 37 194t-37 194zM129 613q65 95 187 95t187 -95t65 -263t-65 -263t-187 -95t-187 95t-65 263t65 263z"/>
<glyph glyph-name="one" horiz-adv-x="396" unicode="1" d="M71 584l194 116h43v-700h-106v550l-131 -78v112z"/>
<glyph glyph-name="two" horiz-adv-x="575" unicode="2" d="M502 0h-434v44l258 331q32 41 44 68.5t12 61.5q0 50 -25 78.5t-71 28.5q-44 0 -71 -28.5t-33 -78.5l-100 19q4 78 62 131q59 53 142 53q90 0 146 -54q57 -53 57 -145q0 -87 -58 -160l-199 -253h270v-96z"/>
<glyph glyph-name="three" d="M59 193l103 13q19 -118 126 -118q57 0 91 36t34 99q0 65 -34 101t-91 36q-28 0 -61 -14l-42 56l145 202h-237v96h390v-36l-170 -232q12 3 29 3q80 0 128 -60q49 -58 49 -152q0 -100 -67 -166q-67 -65 -164 -65q-91 0 -157 57t-72 144z" unicode="3"/>
<glyph glyph-name="four" horiz-adv-x="609" unicode="4" d="M363 540l-170 -304h170v304zM469 0h-106v140h-302v48l296 512h112v-464h82v-96h-82v-140z"/>
<glyph glyph-name="five" horiz-adv-x="579" unicode="5" d="M75 183l103 19q17 -114 115 -114q56 0 86.5 37.5t30.5 102.5t-30.5 102.5t-86.5 37.5q-80 0 -134 -72l-69 14l39 390h348v-96h-259l-21 -175q43 35 102 35q103 0 160 -66q57 -64 57 -170q0 -105 -61 -170q-60 -66 -162 -66q-90 0 -149 51t-69 140z"/>
<glyph glyph-name="six" horiz-adv-x="578" unicode="6" d="M179 220q0 -58 33 -95t85 -37t85 37t33 95q0 60 -32 96t-86 36t-86 -36t-32 -96zM303 448q96 0 157 -64t61 -164q0 -98 -64 -163q-63 -65 -160 -65q-96 0 -161 65q-63 66 -63 163q0 68 34 127l208 361h118l-153 -264q7 4 23 4z"/>
<glyph glyph-name="seven" horiz-adv-x="492" unicode="7" d="M52 700h414v-48l-268 -652h-106l249 604h-289v96z"/>
<glyph glyph-name="eight" horiz-adv-x="592" unicode="8" d="M201 518q0 -43 27 -71t68 -28t68 28t27 71q0 42 -27 70t-68 28t-68 -28t-27 -70zM380 290q-33 30 -84 30q-50 0 -85 -30q-33 -30 -33 -84q0 -55 34 -86q35 -32 84 -32t84 32q34 31 34 86q0 54 -34 84zM494 519q0 -85 -70 -142q96 -55 96 -171q0 -97 -65 -156 q-64 -58 -159 -58t-159 58q-65 59 -65 156q0 116 96 171q-70 55 -70 142q0 78 56 134q55 55 142 55t142 -55q56 -56 56 -134z"/>
<glyph glyph-name="nine" horiz-adv-x="579" unicode="9" d="M416 480q0 58 -33 95t-85 37t-85 -37t-33 -95q0 -60 32 -96t86 -36t86 36t32 96zM292 252q-96 0 -157 64t-61 164q0 98 63 162q64 66 161 66t160 -66q64 -64 64 -162q0 -68 -34 -127l-208 -361h-118l153 264q-7 -4 -23 -4z"/>
<glyph glyph-name="colon" horiz-adv-x="318" unicode=":" d="M106 444q22 22 53 22q30 0 52 -22t22 -52q0 -31 -22 -53q-21 -21 -52 -21q-32 0 -53 21t-21 53q0 31 21 52zM106 121q22 22 53 22q30 0 52 -22t22 -52q0 -31 -22 -53q-21 -21 -52 -21q-32 0 -53 21t-21 53q0 31 21 52z"/>
<glyph glyph-name="semicolon" horiz-adv-x="318" unicode=";" d="M110 -132h-78l71 260h143zM106 444q22 22 53 22q30 0 52 -22t22 -52q0 -31 -22 -53q-21 -21 -52 -21q-32 0 -53 21t-21 53q0 31 21 52z"/>
<glyph glyph-name="less" horiz-adv-x="465" unicode="&lt;" d="M412 66l-364 192v104l364 192v-111l-254 -133l254 -133v-111z"/>
<glyph glyph-name="equal" horiz-adv-x="605" unicode="=" d="M510 181h-415v92h415v-92zM510 347h-415v92h415v-92z"/>
<glyph glyph-name="greater" horiz-adv-x="465" unicode="&gt;" d="M53 554l364 -192v-104l-364 -192v111l254 133l-254 133v111z"/>
<glyph glyph-name="question" horiz-adv-x="456" unicode="?" d="M175 17q-21 21 -21 54q0 32 21 53q22 22 55 22q32 0 54 -22t22 -53q0 -32 -22 -54q-21 -21 -54 -21q-34 0 -55 21zM288 343l81 -31q-31 -105 -139 -105q-61 0 -98.5 33.5t-37.5 90.5q0 84 85 123l83 38q27 13 38 28.5t11 41.5q0 27 -21 44t-52 17q-76 0 -98 -82l-95 16 q12 68 62 109.5t125 41.5q79 0 129 -41.5t50 -112.5q0 -81 -71 -116l-113 -55q-42 -19 -42 -56q0 -19 11.5 -30t31.5 -11q40 0 60 57z"/>
<glyph glyph-name="at" horiz-adv-x="910" unicode="@" d="M459 424q-49 0 -78.5 -36t-29.5 -96q0 -41 22.5 -66.5t61.5 -25.5q55 0 84 37.5t29 94.5q0 44 -23.5 68t-65.5 24zM574 466l11 43h76l-24 -253l-1 -17q0 -39 39 -39q75 0 75 152q0 142 -69 208t-207 66q-78 0 -145 -35q-69 -35 -111.5 -112t-42.5 -181q0 -96 44 -167 q84 -133 254 -133q38 0 72 2q82 7 169 51l35 -85q-79 -36 -134 -48q-54 -12 -142 -12q-180 0 -292 106q-111 107 -111 289q0 191 114 303q116 114 295 114q178 0 274.5 -96t96.5 -270q0 -116 -48 -180t-131 -64q-38 0 -69 18.5t-44 48.5q-43 -67 -130 -67q-82 0 -128.5 52 t-46.5 135q0 94 59 158q60 63 154 63q75 0 108 -50z"/>
<glyph glyph-name="A" horiz-adv-x="608" unicode="A" d="M396 278l-92 283l-92 -283h184zM9 0l243 700h104l243 -700h-112l-58 174h-250l-58 -174h-112z"/>
<glyph glyph-name="B" horiz-adv-x="623" unicode="B" d="M339 320h-135v-216h135q123 0 123 108t-123 108zM332 596h-128v-172h128q96 0 96 86t-96 86zM94 0v700h248q91 0 143.5 -48t52.5 -135q0 -42 -20 -80.5t-51 -54.5q50 -21 78.5 -68t28.5 -108q0 -98 -58 -152t-162 -54h-260z"/>
<glyph glyph-name="C" horiz-adv-x="695" unicode="C" d="M658 496l-104 -26q-27 70 -69 102t-110 32q-95 0 -153.5 -67t-58.5 -187t58.5 -187t153.5 -67q68 0 110 32t69 102l104 -26q-27 -102 -100 -157t-183 -55q-136 0 -230 94t-94 264q0 169 94 263q95 95 230 95q110 0 183 -55t100 -157z"/>
<glyph glyph-name="D" horiz-adv-x="673" unicode="D" d="M268 596h-64v-492h64q49 0 90 12t76.5 39t55.5 76.5t20 118.5t-20 118.5t-55.5 76.5t-76.5 39t-90 12zM94 0v700h206q136 0 228 -91q94 -91 94 -259t-94 -259q-92 -91 -228 -91h-206z"/>
<glyph glyph-name="E" horiz-adv-x="568" unicode="E" d="M94 0v700h415v-104h-305v-172h246v-104h-246v-216h315v-104h-425z"/>
<glyph glyph-name="F" horiz-adv-x="549" unicode="F" d="M94 0v700h424v-104h-314v-181h253v-104h-253v-311h-110z"/>
<glyph glyph-name="G" horiz-adv-x="720" unicode="G" d="M657 0h-96l-8 87q-23 -41 -71 -68t-113 -27q-132 0 -226 92q-92 92 -92 266q0 175 94 266q95 92 230 92q109 0 183 -60q74 -58 96 -156l-101 -31q-50 143 -178 143q-96 0 -154 -67t-58 -187q0 -123 57 -188.5t155 -65.5q76 0 120.5 44t51.5 116h-136v97h246v-353z"/>
<glyph glyph-name="H" horiz-adv-x="692" unicode="H" d="M204 0h-110v700h110v-274h284v274h110v-700h-110v322h-284v-322z"/>
<glyph glyph-name="I" horiz-adv-x="298" unicode="I" d="M204 0h-110v700h110v-700z"/>
<glyph glyph-name="J" horiz-adv-x="512" unicode="J" d="M324 222v478h110v-473q0 -120 -60 -178q-60 -57 -154 -57q-91 0 -146 52q-56 53 -68 132l111 23q9 -49 35.5 -76t67.5 -27q52 0 78 29.5t26 96.5z"/>
<glyph glyph-name="K" horiz-adv-x="621" unicode="K" d="M94 0v700h110v-269l250 269h134l-282 -313l305 -387h-141l-266 343v-343h-110z"/>
<glyph glyph-name="L" horiz-adv-x="522" unicode="L" d="M94 0v700h110v-596h302v-104h-412z"/>
<glyph glyph-name="M" horiz-adv-x="796" unicode="M" d="M204 0h-110v700h130l174 -466l174 466h130v-700h-110v472l-155 -408h-78l-155 408v-472z"/>
<glyph glyph-name="N" horiz-adv-x="703" unicode="N" d="M499 196v504h110v-700h-118l-287 502v-502h-110v700h118z"/>
<glyph glyph-name="O" horiz-adv-x="744" unicode="O" d="M521 539q-59 65 -149 65t-150 -65q-59 -65 -59 -189t59 -189q60 -65 150 -65t149 65q60 65 60 189t-60 189zM143 614q93 94 229 94q137 0 228 -94q93 -93 93 -264q0 -170 -93 -265q-92 -93 -228 -93t-229 93q-92 95 -92 265t92 264z"/>
<glyph glyph-name="P" horiz-adv-x="589" unicode="P" d="M204 390h146q47 0 73.5 27t26.5 76t-26.5 76t-73.5 27h-146v-206zM345 286h-141v-286h-110v700h251q102 0 159 -58q58 -58 58 -149t-58 -149q-57 -58 -159 -58z"/>
<glyph glyph-name="Q" horiz-adv-x="744" unicode="Q" d="M492 134l-85 85l74 74l75 -76q25 54 25 133q0 124 -60 189q-59 65 -149 65t-150 -65q-59 -65 -59 -189t59 -189q60 -65 150 -65q70 0 120 38zM693 350q0 -126 -54 -215l70 -69l-74 -74l-66 65q-83 -65 -197 -65q-136 0 -229 93q-92 95 -92 265t92 264q93 94 229 94 q137 0 228 -94q93 -93 93 -264z"/>
<glyph glyph-name="R" horiz-adv-x="649" unicode="R" d="M204 418h138q43 0 67.5 22.5t24.5 66.5t-24.5 66.5t-67.5 22.5h-138v-178zM546 507q0 -72 -35.5 -120t-100.5 -65l202 -322h-130l-197 314h-81v-314h-110v700h245q98 0 152.5 -51.5t54.5 -141.5z"/>
<glyph glyph-name="S" horiz-adv-x="530" unicode="S" d="M454 590l-89 -59q-41 77 -104 77q-33 0 -53 -21.5t-20 -54.5q0 -64 106 -114q34 -15 53.5 -24.5t50 -29.5t47.5 -39.5t30 -50.5t13 -67q0 -97 -62 -156t-157 -59q-89 0 -150.5 53.5t-80.5 141.5l90 57q37 -148 141 -148q47 0 77 29.5t30 75.5q0 32 -22 56.5t-55 40 t-72 35.5t-72 41.5t-55 60t-22 89.5q0 78 53 131t130 53q127 0 193 -118z"/>
<glyph glyph-name="T" horiz-adv-x="524" unicode="T" d="M207 596h-196v104h502v-104h-196v-596h-110v596z"/>
<glyph glyph-name="U" horiz-adv-x="654" unicode="U" d="M75 252v448h110v-453q0 -73 36.5 -112t105.5 -39t105.5 39t36.5 112v453h110v-448q0 -123 -71 -192q-71 -68 -181 -68q-112 0 -182 69t-70 191z"/>
<glyph glyph-name="V" horiz-adv-x="598" unicode="V" d="M593 700l-239 -700h-110l-239 700h118l176 -546l176 546h118z"/>
<glyph glyph-name="W" horiz-adv-x="912" unicode="W" d="M645 156l128 544h116l-185 -700h-112l-136 444l-136 -444h-112l-185 700h116l128 -544l139 470h100z"/>
<glyph glyph-name="X" d="M290 484l124 216h123l-185 -324l216 -376h-125l-153 267l-153 -267h-125l216 376l-185 324h123z" unicode="X"/>
<glyph glyph-name="Y" horiz-adv-x="514" unicode="Y" d="M202 300l-200 400h117l138 -291l138 291h117l-200 -400v-300h-110v300z"/>
<glyph glyph-name="Z" horiz-adv-x="558" unicode="Z" d="M357 596h-304v104h452v-54l-315 -542h328v-104h-480v54z"/>
<glyph glyph-name="bracketleft" horiz-adv-x="338" unicode="[" d="M302 -50h-208v800h208v-94h-108v-612h108v-94z"/>
<glyph glyph-name="backslash" horiz-adv-x="547" unicode="\" d="M431 -50l-436 800h103l436 -800h-103z"/>
<glyph glyph-name="bracketright" horiz-adv-x="338" unicode="]" d="M36 750h208v-800h-208v94h108v612h-108v94z"/>
<glyph glyph-name="asciicircum" horiz-adv-x="578" unicode="^" d="M54 413l191 287h88l191 -287h-103l-132 195l-132 -195h-103z"/>
<glyph glyph-name="underscore" horiz-adv-x="499" unicode="_" d="M472 -92h-445v92h445v-92z"/>
<glyph glyph-name="grave" horiz-adv-x="242" unicode="`" d="M16 708h141l68 -148h-80z"/>
<glyph glyph-name="a" horiz-adv-x="514" unicode="a" d="M154 145q0 -28 16.5 -44.5t46.5 -16.5q53 0 92 33q40 34 40 95v11h-91q-48 0 -76 -21t-28 -57zM44 145q0 77 59.5 121t158.5 44h87v22q0 43 -26.5 65.5t-71.5 22.5q-69 0 -94 -67l-95 20q16 64 67 101.5t123 37.5q201 0 201 -199v-313h-88l-10 66q-53 -74 -156 -74 q-69 0 -112 40t-43 113z"/>
<glyph glyph-name="b" horiz-adv-x="601" unicode="b" d="M406 129q36 47 36 123q0 77 -36 122q-36 46 -93 46t-93 -46q-36 -45 -36 -122q0 -76 36 -123q36 -45 93 -45t93 45zM552 252q0 -124 -58 -192t-167 -68q-44 0 -83 20t-54 46v-58h-104v708h104v-260q17 24 58 44q42 20 77 20q110 0 168.5 -69t58.5 -191z"/>
<glyph glyph-name="c" horiz-adv-x="542" unicode="c" d="M411 171l93 -40q-61 -139 -218 -139q-114 0 -176 74q-61 74 -61 186t61 185q62 75 176 75q157 0 218 -139l-93 -40q-39 87 -125 87q-62 0 -94.5 -45t-32.5 -123t32.5 -123t94.5 -45q86 0 125 87z"/>
<glyph glyph-name="d" horiz-adv-x="601" unicode="d" d="M195 374q-36 -45 -36 -122q0 -76 36 -123q36 -45 93 -45t93 45q36 47 36 123q0 77 -36 122q-36 46 -93 46t-93 -46zM49 252q0 122 58.5 191t168.5 69q35 0 77 -20q41 -20 58 -44v260h104v-708h-104v58q-15 -26 -54 -46t-83 -20q-109 0 -167 68t-58 192z"/>
<glyph glyph-name="e" horiz-adv-x="559" unicode="e" d="M516 268v-45h-357q0 -61 33.5 -100t91.5 -39q42 0 77.5 22.5t54.5 62.5l89 -35q-39 -76 -89 -109t-132 -33q-60 0 -106.5 23.5t-73.5 62t-41 83t-14 91.5t14 91.5t41 83t73.5 62t106.5 23.5q58 0 104 -22t73 -58t41 -78t14 -86zM284 420q-49 0 -81.5 -30t-41.5 -80h245 q-7 49 -39 79.5t-83 30.5z"/>
<glyph glyph-name="f" horiz-adv-x="362" unicode="f" d="M103 412h-65v92h65v26q0 88 44.5 133t124.5 45q48 0 83 -18l-21 -88q-28 14 -59 14q-68 0 -68 -79v-33h111v-92h-111v-412h-104v412z"/>
<glyph glyph-name="g" horiz-adv-x="511" unicode="g" d="M267 261q36 0 58 22.5t22 59.5t-22 59.5t-58 22.5q-35 0 -57 -22.5t-22 -59.5t22 -59.5t57 -22.5zM300 18h-81q-27 0 -51 3q-22 -22 -22 -61q0 -38 32.5 -60t89.5 -22q54 0 84.5 20t30.5 56q0 64 -83 64zM87 343q0 77 51 123q50 46 129 46q51 0 92 -22l93 50l42 -75 l-68 -38q22 -37 22 -84q0 -77 -51 -124q-51 -45 -130 -45q-43 0 -81 15q-27 -15 -27 -44q0 -39 52 -39h111q77 0 122 -37.5t45 -106.5q0 -88 -64 -131q-62 -43 -157 -43q-101 0 -161.5 43.5t-60.5 122.5q0 62 43 102q-29 29 -29 79q0 68 61 102q-34 41 -34 106z"/>
<glyph glyph-name="h" horiz-adv-x="588" unicode="h" d="M86 0v708h104v-290q64 94 170 94q72 0 110.5 -39.5t38.5 -117.5v-355h-104v328q0 52 -19 72t-60 20q-48 0 -92 -57q-44 -58 -44 -150v-213h-104z"/>
<glyph glyph-name="i" horiz-adv-x="266" unicode="i" d="M81 0v504h104v-504h-104zM81 595q-20 22 -20 50q0 31 21 52q22 22 51 22t51 -22q21 -21 21 -51t-21 -51q-20 -20 -51 -20q-32 0 -52 20z"/>
<glyph glyph-name="j" horiz-adv-x="266" unicode="j" d="M1 -212l-26 91q55 16 80.5 47t25.5 87v491h104v-481q0 -100 -46 -157t-138 -78zM81 595q-20 22 -20 50q0 31 21 52q22 22 51 22t51 -22q21 -21 21 -51t-21 -51q-20 -20 -51 -20q-32 0 -52 20z"/>
<glyph glyph-name="k" horiz-adv-x="525" unicode="k" d="M86 0v708h104v-405l182 201h132l-211 -232l224 -272h-132l-195 241v-241h-104z"/>
<glyph glyph-name="l" horiz-adv-x="271" unicode="l" d="M84 0v708h104v-708h-104z"/>
<glyph glyph-name="m" horiz-adv-x="861" unicode="m" d="M86 0v504h104v-86q61 94 152 94q51 0 89.5 -28.5t49.5 -75.5q26 50 67 77t90 27q67 0 105.5 -41t38.5 -110v-361h-104v338q0 39 -20 60.5t-54 21.5q-50 0 -84 -60t-34 -158v-202h-104v338q0 39 -20 60.5t-54 21.5q-52 0 -85 -61.5t-33 -167.5v-191h-104z"/>
<glyph glyph-name="n" d="M86 0v504h104v-86q27 45 70 69.5t93 24.5q68 0 108 -40t40 -111v-361h-104v328q0 92 -78 92q-52 0 -91 -59q-38 -59 -38 -157v-204h-104z" unicode="n"/>
<glyph glyph-name="o" horiz-adv-x="594" unicode="o" d="M195 370q-36 -50 -36 -118q0 -70 36 -119q37 -49 102 -49t101 49q37 49 37 119q0 69 -37 118q-36 50 -101 50q-64 0 -102 -50zM116 67q-67 74 -67 185t67 185q68 75 181 75t180 -75q68 -76 68 -185t-68 -185q-67 -75 -180 -75t-181 75z"/>
<glyph glyph-name="p" horiz-adv-x="601" unicode="p" d="M406 129q36 47 36 123q0 77 -36 122q-36 46 -93 46t-93 -46q-36 -45 -36 -122q0 -76 36 -123q36 -45 93 -45t93 45zM552 252q0 -122 -58.5 -191t-168.5 -69q-43 0 -79.5 18t-55.5 46v-260h-104v708h104v-58q15 26 54 46t83 20q109 0 167 -68t58 -192z"/>
<glyph glyph-name="q" horiz-adv-x="601" unicode="q" d="M195 374q-36 -45 -36 -122q0 -76 36 -123q36 -45 93 -45t93 45q36 47 36 123q0 77 -36 122q-36 46 -93 46t-93 -46zM49 252q0 124 58 192t167 68q44 0 83 -20t54 -46v58h104v-708h-104v260q-18 -26 -58 -45q-39 -19 -77 -19q-110 0 -168.5 69t-58.5 191z"/>
<glyph glyph-name="r" horiz-adv-x="417" unicode="r" d="M190 187v-187h-104v504h104v-84q24 43 65 67.5t84 24.5q34 0 64 -12l-18 -95q-24 15 -59 15q-56 0 -96 -61q-40 -59 -40 -172z"/>
<glyph glyph-name="s" horiz-adv-x="450" unicode="s" d="M234 512q45 0 85 -21.5t64 -58.5l-66 -58q-36 46 -88 46q-22 0 -36 -13.5t-14 -36.5q0 -18 13 -31q20 -20 77 -41q52 -19 78 -37q58 -35 63 -109q0 -68 -48 -114q-47 -46 -127 -46q-68 0 -119 38t-76 97l88 48q40 -91 111 -91q68 0 68 66q0 25 -26 40q-15 10 -26 14 q-8 4 -34.5 14t-33.5 13q-108 45 -108 138q0 60 44 101q43 42 111 42z"/>
<glyph glyph-name="t" horiz-adv-x="385" unicode="t" d="M105 412h-84v92h84v139l104 65v-204h131v-92h-131v-246q0 -82 67 -82q25 0 48 14l27 -88q-37 -18 -81 -18q-77 0 -121 46.5t-44 133.5v240z"/>
<glyph glyph-name="u" d="M494 504v-504h-104v86q-27 -45 -70 -69.5t-93 -24.5q-68 0 -108 40t-40 111v361h104v-328q0 -92 78 -92q53 0 90 58q39 59 39 158v204h104z" unicode="u"/>
<glyph glyph-name="v" horiz-adv-x="456" unicode="v" d="M179 0l-167 504h106l110 -362l110 362h106l-167 -504h-98z"/>
<glyph glyph-name="w" horiz-adv-x="754" unicode="w" d="M516 136l97 368h110l-160 -504h-95l-91 356l-91 -356h-95l-160 504h110l97 -368l89 368h100z"/>
<glyph glyph-name="x" horiz-adv-x="470" unicode="x" d="M235 356l92 148h112l-148 -238l166 -266h-112l-110 176l-110 -176h-112l166 266l-148 238h112z"/>
<glyph glyph-name="y" horiz-adv-x="469" unicode="y" d="M185 25l-177 479h110l119 -339l115 339h110l-255 -708h-104z"/>
<glyph glyph-name="z" horiz-adv-x="461" unicode="z" d="M273 412h-212v92h347v-42l-227 -370h238v-92h-373v42z"/>
<glyph glyph-name="braceleft" horiz-adv-x="332" unicode="{" d="M142 46v181q0 45 -16.5 60.5t-66.5 15.5v94q50 0 66.5 15.5t16.5 60.5v181q0 42 27.5 69t71.5 27h66v-94h-25q-22 0 -31 -9.5t-9 -32.5v-165q0 -87 -73 -99q73 -12 73 -99v-165q0 -23 9 -32.5t31 -9.5h25v-94h-66q-44 0 -71.5 27t-27.5 69z"/>
<glyph glyph-name="bar" horiz-adv-x="288" unicode="|" d="M94 -50v800h100v-800h-100z"/>
<glyph glyph-name="braceright" horiz-adv-x="332" unicode="}" d="M190 227v-181q0 -42 -27.5 -69t-71.5 -27h-66v94h25q22 0 31 9.5t9 32.5v165q0 87 73 99q-73 12 -73 99v165q0 23 -9 32.5t-31 9.5h-25v94h66q44 0 71.5 -27t27.5 -69v-181q0 -45 16.5 -60.5t66.5 -15.5v-94q-50 0 -66.5 -15.5t-16.5 -60.5z"/>
<glyph glyph-name="asciitilde" horiz-adv-x="642" unicode="~" d="M133 257l-56 60q19 43 59 72t83 29q44 0 105 -26t93 -26q53 0 92 47l56 -60q-19 -43 -59 -72t-83 -29q-42 0 -105 26q-61 26 -93 26q-53 0 -92 -47z"/>
<glyph glyph-name="uni00A0" horiz-adv-x="258" unicode=" "/>
<glyph glyph-name="exclamdown" horiz-adv-x="351" unicode="¡" d="M118 371q-21 21 -21 54q0 32 21 53q22 22 55 22q32 0 54 -22t22 -53q0 -32 -22 -54q-21 -21 -54 -21q-34 0 -55 21zM217 275l27 -479h-142l27 479h88z"/>
<glyph glyph-name="cent" horiz-adv-x="569" unicode="¢" d="M419 270l93 -40q-52 -117 -170 -135v-144h-100v145q-90 16 -138 87q-47 71 -47 168q0 96 47 167q49 72 138 88v145h100v-144q118 -18 170 -135l-93 -40q-39 87 -125 87q-62 0 -94.5 -45t-32.5 -123t32.5 -123t94.5 -45q86 0 125 87z"/>
<glyph glyph-name="sterling" horiz-adv-x="547" unicode="£" d="M142 314h-80v100h48q-14 51 -14 90q0 92 55 147q55 57 145 57q73 0 125.5 -36t75.5 -102l-87 -41q-34 79 -114 79q-44 0 -70 -26.5t-26 -78.5q0 -53 10 -89h163v-100h-133q5 -28 5 -50q0 -99 -82 -169q50 32 90 32q29 0 61 -18q34 -17 54 -17q46 0 80 57l79 -44 q-32 -60 -68.5 -86.5t-86.5 -26.5q-42 0 -88 17q-45 18 -66 18q-59 0 -115 -35l-62 69q59 56 84.5 97.5t25.5 89.5q0 36 -9 66z"/>
<glyph glyph-name="currency" horiz-adv-x="562" unicode="¤" d="M351 231q27 29 27 76t-27 76q-26 29 -70 29t-71 -29q-26 -29 -26 -76t26 -76q27 -29 71 -29t70 29zM451 199l88 -67l-83 -83l-67 87q-46 -31 -108 -31t-108 31l-67 -87l-83 83l88 67q-30 48 -30 108t30 108l-88 67l83 83l67 -87q46 31 108 31t108 -31l67 87l83 -83 l-88 -67q30 -48 30 -108t-30 -108z"/>
<glyph glyph-name="yen" horiz-adv-x="518" unicode="¥" d="M159 392l-149 308h117l132 -290l132 290h117l-149 -308h105v-92h-150v-67h150v-92h-150v-141h-110v141h-150v92h150v67h-150v92h105z"/>
<glyph glyph-name="brokenbar" horiz-adv-x="288" unicode="¦" d="M194 750v-349h-100v349h100zM94 -50v349h100v-349h-100z"/>
<glyph glyph-name="section" horiz-adv-x="533" unicode="§" d="M389 213q0 23 -18.5 44.5t-43.5 33.5q-17 9 -66 31q-43 19 -65 31q-40 -25 -40 -70q0 -39 43 -68q15 -9 43 -23q95 -43 107 -49q40 25 40 70zM482 222q0 -88 -64 -136q32 -44 32 -107q0 -87 -52 -139t-125 -52q-156 0 -195 149l95 32q27 -81 100 -81q33 0 55 23t22 64 q0 47 -36 72q-20 16 -37 24q-8 4 -53 25q-38 18 -59 30q-102 56 -102 148q0 88 64 136q-32 44 -32 107q0 87 52 139t125 52q156 0 195 -149l-95 -32q-27 81 -100 81q-33 0 -55 -23t-22 -64q0 -45 35 -73q19 -13 37 -23l53 -26q46 -21 60 -29q102 -56 102 -148z"/>
<glyph glyph-name="dieresis" horiz-adv-x="347" unicode="¨" d="M222 606q-18 18 -18 45t18 45t45 18t45 -18t18 -45t-18 -45t-45 -18t-45 18zM36 606q-18 18 -18 45t18 45t45 18t45 -18t18 -45t-18 -45t-45 -18t-45 18z"/>
<glyph glyph-name="copyright" horiz-adv-x="896" unicode="©" d="M541 288l85 -19q-10 -62 -59.5 -98.5t-118.5 -36.5q-82 0 -141 56q-58 57 -58 160q0 104 58 159q59 57 141 57q69 0 118.5 -36.5t59.5 -98.5l-85 -19q-22 70 -93 70q-48 0 -76.5 -35t-28.5 -97t28.5 -97t76.5 -35q71 0 93 70zM241 563q-80 -86 -80 -213t80 -213 q79 -85 207 -85t207 85q80 86 80 213t-80 213q-79 85 -207 85t-207 -85zM174 72q-109 112 -109 278t109 278t274 112q164 0 273 -112q110 -113 110 -278t-110 -278q-109 -112 -273 -112q-165 0 -274 112z"/>
<glyph glyph-name="ordfeminine" horiz-adv-x="443" unicode="ª" d="M146 416q0 -48 50 -48q43 0 73 27.5t30 73.5v11h-71q-37 0 -59.5 -17.5t-22.5 -46.5zM60 416q0 60 46.5 95t124.5 35h68v17q0 69 -79 69q-59 0 -75 -52l-69 15q11 51 49 80t95 29q161 0 161 -156v-248h-68l-9 54q-42 -58 -122 -58q-55 0 -88.5 31t-33.5 89z"/>
<glyph glyph-name="guillemotleft" horiz-adv-x="662" unicode="«" d="M609 68l-293 206v72l293 206v-107l-189 -135l189 -135v-107zM339 68l-293 206v72l293 206v-107l-189 -135l189 -135v-107z"/>
<glyph glyph-name="logicalnot" horiz-adv-x="588" unicode="¬" d="M410 305h-345v92h449v-255h-104v163z"/>
<glyph glyph-name="uni00AD" horiz-adv-x="489" unicode="­" d="M421 271h-353v92h353v-92z"/>
<glyph glyph-name="registered" horiz-adv-x="896" unicode="®" d="M460 483h-71v-84h71q54 0 54 42t-54 42zM634 137h-98l-122 182h-25v-182h-86v426h158q67 0 102.5 -31.5t35.5 -90.5q0 -48 -24.5 -78.5t-67.5 -39.5zM241 563q-80 -86 -80 -213t80 -213q79 -85 207 -85t207 85q80 86 80 213t-80 213q-79 85 -207 85t-207 -85zM174 72 q-109 112 -109 278t109 278t274 112q164 0 273 -112q110 -113 110 -278t-110 -278q-109 -112 -273 -112q-165 0 -274 112z"/>
<glyph glyph-name="overscore" horiz-adv-x="279" unicode="¯" d="M268 626h-257v92h257v-92z"/>
<glyph glyph-name="degree" horiz-adv-x="354" unicode="°" d="M147 623q-11 -11 -11 -30q0 -20 11 -31t30 -11t30 11t11 31q0 19 -11 30q-12 12 -30 12t-30 -12zM95 513q-32 32 -32 80q0 47 32 79t82 32t82 -32t32 -79q0 -48 -32 -80q-31 -31 -82 -31t-82 31z"/>
<glyph glyph-name="plusminus" horiz-adv-x="566" unicode="±" d="M506 0h-445v92h445v-92zM237 445v176h92v-176h177v-92h-177v-177h-92v177h-176v92h176z"/>
<glyph glyph-name="uni00B2" horiz-adv-x="381" unicode="²" d="M322 300h-264v30l151 186q25 31 25 67q0 23 -12 36t-33 13q-49 0 -54 -60l-73 20q5 49 40.5 80.5t86.5 31.5q57 0 91 -32t34 -87t-39 -101l-92 -112h139v-72z"/>
<glyph glyph-name="uni00B3" horiz-adv-x="388" unicode="³" d="M58 417l70 10q4 -27 22 -43t43 -16q56 0 56 67q0 29 -15 45t-41 16q-21 0 -38 -12l-36 47l73 97h-117v72h230v-29l-91 -120q51 0 83 -34t32 -85q0 -63 -35.5 -99.5t-100.5 -36.5q-57 0 -94.5 33.5t-40.5 87.5z"/>
<glyph glyph-name="acute" horiz-adv-x="242" unicode="´" d="M97 560h-80l68 148h141z"/>
<glyph glyph-name="mu" d="M494 504v-504h-104v86q-58 -94 -163 -94q-19 0 -44 5v-201h-104v708h104v-328q0 -92 78 -92q53 0 90 58q39 59 39 158v204h104z" unicode="µ"/>
<glyph glyph-name="mu" d="M494 504v-504h-104v86q-58 -94 -163 -94q-19 0 -44 5v-201h-104v708h104v-328q0 -92 78 -92q53 0 90 58q39 59 39 158v204h104z" unicode="μ"/>
<glyph glyph-name="paragraph" horiz-adv-x="715" unicode="¶" d="M267 700h385v-92h-62v-812h-104v812h-115v-812h-104v484q-88 0 -149 61t-61 149q0 87 61 148q62 62 149 62z"/>
<glyph glyph-name="middot" horiz-adv-x="318" unicode="·" d="M106 421q22 22 53 22q30 0 52 -22t22 -52q0 -31 -22 -53q-21 -21 -52 -21q-32 0 -53 21t-21 53q0 31 21 52z"/>
<glyph glyph-name="cedilla" horiz-adv-x="221" unicode="¸" d="M132 -60h81l-84 -191l-121 56z"/>
<glyph glyph-name="uni00B9" horiz-adv-x="298" unicode="¹" d="M54 637l131 63h30v-400h-77v292l-84 -40v85z"/>
<glyph glyph-name="ordmasculine" horiz-adv-x="517" unicode="º" d="M179 593q-29 -40 -29 -93t29 -93q29 -39 80 -39t79 39q29 40 29 93t-29 93q-28 39 -79 39t-80 -39zM117 355q-53 59 -53 145t53 145t142 59q88 0 141 -59t53 -145t-53 -145t-141 -59q-89 0 -142 59z"/>
<glyph glyph-name="guillemotright" horiz-adv-x="662" unicode="»" d="M53 552l293 -206v-72l-293 -206v107l189 135l-189 135v107zM323 552l293 -206v-72l-293 -206v107l189 135l-189 135v107z"/>
<glyph glyph-name="onequarter" horiz-adv-x="821" unicode="¼" d="M617 286l-74 -143h74v143zM694 0h-77v71h-167v35l160 294h84v-257h44v-72h-44v-71zM124 13l539 720l58 -45l-539 -720zM74 637l131 63h30v-400h-77v292l-84 -40v85z"/>
<glyph glyph-name="onehalf" horiz-adv-x="901" unicode="½" d="M818 0h-264v30l151 186q25 31 25 67q0 23 -12 36t-33 13q-49 0 -54 -60l-73 20q5 49 40.5 80.5t86.5 31.5q57 0 91 -32t34 -87t-39 -101l-92 -112h139v-72zM128 13l539 720l58 -45l-539 -720zM74 637l131 63h30v-400h-77v292l-84 -40v85z"/>
<glyph glyph-name="threequarters" horiz-adv-x="815" unicode="¾" d="M635 286l-74 -143h74v143zM712 0h-77v71h-167v35l160 294h84v-257h44v-72h-44v-71zM58 417l70 10q4 -27 22 -43t43 -16q56 0 56 67q0 29 -15 45t-41 16q-21 0 -38 -12l-36 47l73 97h-117v72h230v-29l-91 -120q51 0 83 -34t32 -85q0 -63 -35.5 -99.5t-100.5 -36.5 q-57 0 -94.5 33.5t-40.5 87.5zM152 13l539 720l58 -45l-539 -720z"/>
<glyph glyph-name="questiondown" horiz-adv-x="456" unicode="¿" d="M280 478q22 -22 22 -53q0 -32 -22 -54q-21 -21 -54 -21q-34 0 -55 21t-21 54q0 32 21 53q22 22 55 22q32 0 54 -22zM168 153l-81 31q31 105 139 105q61 0 98.5 -33.5t37.5 -90.5q0 -84 -85 -123l-83 -38q-27 -13 -38 -28.5t-11 -41.5q0 -27 21 -44t52 -17q76 0 98 82 l95 -16q-12 -68 -62 -109.5t-125 -41.5q-79 0 -129 41.5t-50 112.5q0 81 71 116l113 55q42 19 42 56q0 19 -11.5 30t-31.5 11q-40 0 -60 -57z"/>
<glyph glyph-name="Agrave" horiz-adv-x="608" unicode="À" d="M161 904h141l68 -148h-80zM396 278l-92 283l-92 -283h184zM9 0l243 700h104l243 -700h-112l-58 174h-250l-58 -174h-112z"/>
<glyph glyph-name="Aacute" horiz-adv-x="608" unicode="Á" d="M312 756h-80l68 148h141zM396 278l-92 283l-92 -283h184zM9 0l243 700h104l243 -700h-112l-58 174h-250l-58 -174h-112z"/>
<glyph glyph-name="Acircumflex" horiz-adv-x="608" unicode="Â" d="M227 762h-100l162 176h30l162 -176h-100l-77 80zM396 278l-92 283l-92 -283h184zM9 0l243 700h104l243 -700h-112l-58 174h-250l-58 -174h-112z"/>
<glyph glyph-name="Atilde" horiz-adv-x="608" unicode="Ã" d="M177 773l-57 47q16 35 48 58t67 23q37 0 72 -21q35 -20 59 -20q33 0 66 40l57 -47q-16 -35 -48 -58t-67 -23q-38 0 -73 20q-34 21 -58 21q-33 0 -66 -40zM396 278l-92 283l-92 -283h184zM9 0l243 700h104l243 -700h-112l-58 174h-250l-58 -174h-112z"/>
<glyph glyph-name="Adieresis" horiz-adv-x="608" unicode="Ä" d="M352 802q-18 18 -18 45t18 45t45 18t45 -18t18 -45t-18 -45t-45 -18t-45 18zM166 802q-18 18 -18 45t18 45t45 18t45 -18t18 -45t-18 -45t-45 -18t-45 18zM396 278l-92 283l-92 -283h184zM9 0l243 700h104l243 -700h-112l-58 174h-250l-58 -174h-112z"/>
<glyph glyph-name="Aring" horiz-adv-x="608" unicode="Å" d="M268 850q0 -17 10.5 -26.5t25.5 -9.5t25.5 9.5t10.5 26.5q1 18 -9.5 28t-26.5 10t-26.5 -10t-9.5 -28zM203 849q0 43 29 72.5t72 29.5q44 0 72.5 -29.5t28.5 -72.5q0 -42 -28.5 -70t-72.5 -28q-43 0 -72 28.5t-29 69.5zM396 278l-92 283l-92 -283h184zM9 0l243 700h104 l243 -700h-112l-58 174h-250l-58 -174h-112z"/>
<glyph glyph-name="AE" horiz-adv-x="848" unicode="Æ" d="M374 561h-17l-118 -283h135v283zM10 0l302 700h477v-104h-305v-172h246v-104h-246v-216h315v-104h-425v174h-179l-73 -174h-112z"/>
<glyph glyph-name="Ccedilla" horiz-adv-x="695" unicode="Ç" d="M380 -60h81l-84 -191l-121 56zM658 496l-104 -26q-27 70 -69 102t-110 32q-95 0 -153.5 -67t-58.5 -187t58.5 -187t153.5 -67q68 0 110 32t69 102l104 -26q-27 -102 -100 -157t-183 -55q-136 0 -230 94t-94 264q0 169 94 263q95 95 230 95q110 0 183 -55t100 -157z"/>
<glyph glyph-name="Egrave" horiz-adv-x="568" unicode="È" d="M164 904h141l68 -148h-80zM94 0v700h415v-104h-305v-172h246v-104h-246v-216h315v-104h-425z"/>
<glyph glyph-name="Eacute" horiz-adv-x="568" unicode="É" d="M307 756h-80l68 148h141zM94 0v700h415v-104h-305v-172h246v-104h-246v-216h315v-104h-425z"/>
<glyph glyph-name="Ecircumflex" horiz-adv-x="568" unicode="Ê" d="M227 762h-100l162 176h30l162 -176h-100l-77 80zM94 0v700h415v-104h-305v-172h246v-104h-246v-216h315v-104h-425z"/>
<glyph glyph-name="Edieresis" horiz-adv-x="568" unicode="Ë" d="M353 802q-18 18 -18 45t18 45t45 18t45 -18t18 -45t-18 -45t-45 -18t-45 18zM167 802q-18 18 -18 45t18 45t45 18t45 -18t18 -45t-18 -45t-45 -18t-45 18zM94 0v700h415v-104h-305v-172h246v-104h-246v-216h315v-104h-425z"/>
<glyph glyph-name="Igrave" horiz-adv-x="298" unicode="Ì" d="M20 904h141l68 -148h-80zM204 0h-110v700h110v-700z"/>
<glyph glyph-name="Iacute" horiz-adv-x="298" unicode="Í" d="M150 756h-80l68 148h141zM204 0h-110v700h110v-700z"/>
<glyph glyph-name="Icircumflex" horiz-adv-x="298" unicode="Î" d="M78 762h-100l162 176h30l162 -176h-100l-77 80zM204 0h-110v700h110v-700z"/>
<glyph glyph-name="Idieresis" horiz-adv-x="298" unicode="Ï" d="M197 802q-18 18 -18 45t18 45t45 18t45 -18t18 -45t-18 -45t-45 -18t-45 18zM11 802q-18 18 -18 45t18 45t45 18t45 -18t18 -45t-18 -45t-45 -18t-45 18zM204 0h-110v700h110v-700z"/>
<glyph glyph-name="Eth" horiz-adv-x="689" unicode="Ð" d="M284 596h-64v-200h82v-92h-82v-200h64q49 0 90 12t76.5 39t55.5 76.5t20 118.5t-20 118.5t-55.5 76.5t-76.5 39t-90 12zM110 304h-82v92h82v304h206q136 0 228 -91q94 -91 94 -259t-94 -259q-92 -91 -228 -91h-206v304z"/>
<glyph glyph-name="Ntilde" horiz-adv-x="703" unicode="Ñ" d="M224 773l-57 47q16 35 48 58t67 23q38 0 72 -21q35 -20 59 -20q33 0 66 40l57 -47q-16 -35 -48 -58t-67 -23q-38 0 -73 20q-35 21 -58 21q-33 0 -66 -40zM499 196v504h110v-700h-118l-287 502v-502h-110v700h118z"/>
<glyph glyph-name="Ograve" horiz-adv-x="744" unicode="Ò" d="M241 904h141l68 -148h-80zM521 539q-59 65 -149 65t-150 -65q-59 -65 -59 -189t59 -189q60 -65 150 -65t149 65q60 65 60 189t-60 189zM143 614q93 94 229 94q137 0 228 -94q93 -93 93 -264q0 -170 -93 -265q-92 -93 -228 -93t-229 93q-92 95 -92 265t92 264z"/>
<glyph glyph-name="Oacute" horiz-adv-x="744" unicode="Ó" d="M381 756h-80l68 148h141zM521 539q-59 65 -149 65t-150 -65q-59 -65 -59 -189t59 -189q60 -65 150 -65t149 65q60 65 60 189t-60 189zM143 614q93 94 229 94q137 0 228 -94q93 -93 93 -264q0 -170 -93 -265q-92 -93 -228 -93t-229 93q-92 95 -92 265t92 264z"/>
<glyph glyph-name="Ocircumflex" horiz-adv-x="744" unicode="Ô" d="M295 762h-100l162 176h30l162 -176h-100l-77 80zM521 539q-59 65 -149 65t-150 -65q-59 -65 -59 -189t59 -189q60 -65 150 -65t149 65q60 65 60 189t-60 189zM143 614q93 94 229 94q137 0 228 -94q93 -93 93 -264q0 -170 -93 -265q-92 -93 -228 -93t-229 93 q-92 95 -92 265t92 264z"/>
<glyph glyph-name="Otilde" horiz-adv-x="744" unicode="Õ" d="M245 773l-57 47q16 35 48 58t67 23q37 0 72 -21q35 -20 59 -20q33 0 66 40l57 -47q-16 -35 -48 -58t-67 -23q-38 0 -73 20q-34 21 -58 21q-33 0 -66 -40zM521 539q-59 65 -149 65t-150 -65q-59 -65 -59 -189t59 -189q60 -65 150 -65t149 65q60 65 60 189t-60 189z M143 614q93 94 229 94q137 0 228 -94q93 -93 93 -264q0 -170 -93 -265q-92 -93 -228 -93t-229 93q-92 95 -92 265t92 264z"/>
<glyph glyph-name="Odieresis" horiz-adv-x="744" unicode="Ö" d="M421 802q-18 18 -18 45t18 45t45 18t45 -18t18 -45t-18 -45t-45 -18t-45 18zM235 802q-18 18 -18 45t18 45t45 18t45 -18t18 -45t-18 -45t-45 -18t-45 18zM521 539q-59 65 -149 65t-150 -65q-59 -65 -59 -189t59 -189q60 -65 150 -65t149 65q60 65 60 189t-60 189z M143 614q93 94 229 94q137 0 228 -94q93 -93 93 -264q0 -170 -93 -265q-92 -93 -228 -93t-229 93q-92 95 -92 265t92 264z"/>
<glyph glyph-name="multiply" horiz-adv-x="564" unicode="×" d="M347 316l153 -154l-65 -65l-153 153l-153 -153l-65 65l153 154l-153 154l65 65l153 -153l153 153l65 -65z"/>
<glyph glyph-name="Oslash" horiz-adv-x="744" unicode="Ø" d="M372 604q-90 0 -150 -65q-59 -65 -59 -189q0 -88 35 -153l287 374q-49 33 -113 33zM581 350q0 91 -35 153l-287 -374q50 -33 113 -33q90 0 149 65q60 65 60 189zM551 656l61 79l72 -53l-67 -87q76 -94 76 -245q0 -170 -93 -265q-92 -93 -228 -93q-100 0 -179 52l-61 -79 l-72 53l67 87q-76 94 -76 245q0 170 92 264q93 94 229 94q100 0 179 -52z"/>
<glyph glyph-name="Ugrave" horiz-adv-x="654" unicode="Ù" d="M191 904h141l68 -148h-80zM75 252v448h110v-453q0 -73 36.5 -112t105.5 -39t105.5 39t36.5 112v453h110v-448q0 -123 -71 -192q-71 -68 -181 -68q-112 0 -182 69t-70 191z"/>
<glyph glyph-name="Uacute" horiz-adv-x="654" unicode="Ú" d="M331 756h-80l68 148h141zM75 252v448h110v-453q0 -73 36.5 -112t105.5 -39t105.5 39t36.5 112v453h110v-448q0 -123 -71 -192q-71 -68 -181 -68q-112 0 -182 69t-70 191z"/>
<glyph glyph-name="Ucircumflex" horiz-adv-x="654" unicode="Û" d="M250 762h-100l162 176h30l162 -176h-100l-77 80zM75 252v448h110v-453q0 -73 36.5 -112t105.5 -39t105.5 39t36.5 112v453h110v-448q0 -123 -71 -192q-71 -68 -181 -68q-112 0 -182 69t-70 191z"/>
<glyph glyph-name="Udieresis" horiz-adv-x="654" unicode="Ü" d="M376 802q-18 18 -18 45t18 45t45 18t45 -18t18 -45t-18 -45t-45 -18t-45 18zM190 802q-18 18 -18 45t18 45t45 18t45 -18t18 -45t-18 -45t-45 -18t-45 18zM75 252v448h110v-453q0 -73 36.5 -112t105.5 -39t105.5 39t36.5 112v453h110v-448q0 -123 -71 -192 q-71 -68 -181 -68q-112 0 -182 69t-70 191z"/>
<glyph glyph-name="Yacute" horiz-adv-x="514" unicode="Ý" d="M255 756h-80l68 148h141zM202 300l-200 400h117l138 -291l138 291h117l-200 -400v-300h-110v300z"/>
<glyph glyph-name="Thorn" horiz-adv-x="589" unicode="Þ" d="M204 247h146q47 0 73.5 27t26.5 76t-26.5 76t-73.5 27h-146v-206zM345 143h-141v-143h-110v700h110v-143h141q102 0 159 -58q58 -58 58 -149t-58 -149q-57 -58 -159 -58z"/>
<glyph glyph-name="germandbls" horiz-adv-x="560" unicode="ß" d="M83 337h-48v92h48v85q0 95 55 144q56 50 141 50q91 0 140 -50t49 -132q0 -50 -24 -84t-61 -46q136 -41 136 -184q0 -110 -57 -165t-162 -55q-37 0 -69 8v92q43 -8 69 -8q116 0 116 125q0 128 -125 128h-39v92h27q44 0 67.5 24.5t23.5 69.5q0 44 -24.5 68.5t-66.5 24.5 q-43 0 -67.5 -28.5t-24.5 -80.5v-507h-104v337z"/>
<glyph glyph-name="agrave" horiz-adv-x="514" unicode="à" d="M118 708h141l68 -148h-80zM154 145q0 -28 16.5 -44.5t46.5 -16.5q53 0 92 33q40 34 40 95v11h-91q-48 0 -76 -21t-28 -57zM44 145q0 77 59.5 121t158.5 44h87v22q0 43 -26.5 65.5t-71.5 22.5q-69 0 -94 -67l-95 20q16 64 67 101.5t123 37.5q201 0 201 -199v-313h-88 l-10 66q-53 -74 -156 -74q-69 0 -112 40t-43 113z"/>
<glyph glyph-name="aacute" horiz-adv-x="514" unicode="á" d="M255 560h-80l68 148h141zM154 145q0 -28 16.5 -44.5t46.5 -16.5q53 0 92 33q40 34 40 95v11h-91q-48 0 -76 -21t-28 -57zM44 145q0 77 59.5 121t158.5 44h87v22q0 43 -26.5 65.5t-71.5 22.5q-69 0 -94 -67l-95 20q16 64 67 101.5t123 37.5q201 0 201 -199v-313h-88 l-10 66q-53 -74 -156 -74q-69 0 -112 40t-43 113z"/>
<glyph glyph-name="acircumflex" horiz-adv-x="514" unicode="â" d="M180 566h-100l162 176h30l162 -176h-100l-77 80zM154 145q0 -28 16.5 -44.5t46.5 -16.5q53 0 92 33q40 34 40 95v11h-91q-48 0 -76 -21t-28 -57zM44 145q0 77 59.5 121t158.5 44h87v22q0 43 -26.5 65.5t-71.5 22.5q-69 0 -94 -67l-95 20q16 64 67 101.5t123 37.5 q201 0 201 -199v-313h-88l-10 66q-53 -74 -156 -74q-69 0 -112 40t-43 113z"/>
<glyph glyph-name="atilde" horiz-adv-x="514" unicode="ã" d="M123 577l-57 47q16 35 48 58t67 23q37 0 72 -21q35 -20 59 -20q33 0 66 40l57 -47q-16 -35 -48 -58t-67 -23q-38 0 -73 20q-34 21 -58 21q-33 0 -66 -40zM154 145q0 -28 16.5 -44.5t46.5 -16.5q53 0 92 33q40 34 40 95v11h-91q-48 0 -76 -21t-28 -57zM44 145 q0 77 59.5 121t158.5 44h87v22q0 43 -26.5 65.5t-71.5 22.5q-69 0 -94 -67l-95 20q16 64 67 101.5t123 37.5q201 0 201 -199v-313h-88l-10 66q-53 -74 -156 -74q-69 0 -112 40t-43 113z"/>
<glyph glyph-name="adieresis" horiz-adv-x="514" unicode="ä" d="M304 606q-18 18 -18 45t18 45t45 18t45 -18t18 -45t-18 -45t-45 -18t-45 18zM118 606q-18 18 -18 45t18 45t45 18t45 -18t18 -45t-18 -45t-45 -18t-45 18zM154 145q0 -28 16.5 -44.5t46.5 -16.5q53 0 92 33q40 34 40 95v11h-91q-48 0 -76 -21t-28 -57zM44 145 q0 77 59.5 121t158.5 44h87v22q0 43 -26.5 65.5t-71.5 22.5q-69 0 -94 -67l-95 20q16 64 67 101.5t123 37.5q201 0 201 -199v-313h-88l-10 66q-53 -74 -156 -74q-69 0 -112 40t-43 113z"/>
<glyph glyph-name="aring" horiz-adv-x="514" unicode="å" d="M216 654q0 -17 10.5 -26.5t25.5 -9.5t25.5 9.5t10.5 26.5q1 18 -9.5 28t-26.5 10t-26.5 -10t-9.5 -28zM151 653q0 43 29 72.5t72 29.5q44 0 72.5 -29.5t28.5 -72.5q0 -42 -28.5 -70t-72.5 -28q-43 0 -72 28.5t-29 69.5zM154 145q0 -28 16.5 -44.5t46.5 -16.5q53 0 92 33 q40 34 40 95v11h-91q-48 0 -76 -21t-28 -57zM44 145q0 77 59.5 121t158.5 44h87v22q0 43 -26.5 65.5t-71.5 22.5q-69 0 -94 -67l-95 20q16 64 67 101.5t123 37.5q201 0 201 -199v-313h-88l-10 66q-53 -74 -156 -74q-69 0 -112 40t-43 113z"/>
<glyph glyph-name="ae" horiz-adv-x="859" unicode="æ" d="M584 420q-49 0 -81.5 -30t-41.5 -80h245q-7 49 -39 79.5t-83 30.5zM154 145q0 -28 16.5 -44.5t46.5 -16.5q53 0 92 33q40 34 40 95v15h-91q-47 0 -75.5 -23t-28.5 -59zM816 268v-45h-357q0 -61 33.5 -100t91.5 -39q42 0 77.5 22.5t54.5 62.5l89 -35q-39 -76 -89 -109 t-132 -33q-136 0 -199 113q-56 -113 -186 -113q-69 0 -112 40t-43 113q0 77 59.5 121t158.5 44h87v22q0 44 -27.5 66t-73.5 22q-74 0 -96 -66l-88 19q14 64 63 101.5t121 37.5q118 0 169 -69q64 69 167 69q58 0 104 -22t73 -58t41 -78t14 -86z"/>
<glyph glyph-name="ccedilla" horiz-adv-x="542" unicode="ç" d="M291 -60h81l-84 -191l-121 56zM411 171l93 -40q-61 -139 -218 -139q-114 0 -176 74q-61 74 -61 186t61 185q62 75 176 75q157 0 218 -139l-93 -40q-39 87 -125 87q-62 0 -94.5 -45t-32.5 -123t32.5 -123t94.5 -45q86 0 125 87z"/>
<glyph glyph-name="egrave" horiz-adv-x="559" unicode="è" d="M140 708h141l68 -148h-80zM516 268v-45h-357q0 -61 33.5 -100t91.5 -39q42 0 77.5 22.5t54.5 62.5l89 -35q-39 -76 -89 -109t-132 -33q-60 0 -106.5 23.5t-73.5 62t-41 83t-14 91.5t14 91.5t41 83t73.5 62t106.5 23.5q58 0 104 -22t73 -58t41 -78t14 -86zM284 420 q-49 0 -81.5 -30t-41.5 -80h245q-7 49 -39 79.5t-83 30.5z"/>
<glyph glyph-name="eacute" horiz-adv-x="559" unicode="é" d="M286 560h-80l68 148h141zM516 268v-45h-357q0 -61 33.5 -100t91.5 -39q42 0 77.5 22.5t54.5 62.5l89 -35q-39 -76 -89 -109t-132 -33q-60 0 -106.5 23.5t-73.5 62t-41 83t-14 91.5t14 91.5t41 83t73.5 62t106.5 23.5q58 0 104 -22t73 -58t41 -78t14 -86zM284 420 q-49 0 -81.5 -30t-41.5 -80h245q-7 49 -39 79.5t-83 30.5z"/>
<glyph glyph-name="ecircumflex" horiz-adv-x="559" unicode="ê" d="M207 566h-100l162 176h30l162 -176h-100l-77 80zM516 268v-45h-357q0 -61 33.5 -100t91.5 -39q42 0 77.5 22.5t54.5 62.5l89 -35q-39 -76 -89 -109t-132 -33q-60 0 -106.5 23.5t-73.5 62t-41 83t-14 91.5t14 91.5t41 83t73.5 62t106.5 23.5q58 0 104 -22t73 -58t41 -78 t14 -86zM284 420q-49 0 -81.5 -30t-41.5 -80h245q-7 49 -39 79.5t-83 30.5z"/>
<glyph glyph-name="edieresis" horiz-adv-x="559" unicode="ë" d="M332 606q-18 18 -18 45t18 45t45 18t45 -18t18 -45t-18 -45t-45 -18t-45 18zM146 606q-18 18 -18 45t18 45t45 18t45 -18t18 -45t-18 -45t-45 -18t-45 18zM516 268v-45h-357q0 -61 33.5 -100t91.5 -39q42 0 77.5 22.5t54.5 62.5l89 -35q-39 -76 -89 -109t-132 -33 q-60 0 -106.5 23.5t-73.5 62t-41 83t-14 91.5t14 91.5t41 83t73.5 62t106.5 23.5q58 0 104 -22t73 -58t41 -78t14 -86zM284 420q-49 0 -81.5 -30t-41.5 -80h245q-7 49 -39 79.5t-83 30.5z"/>
<glyph glyph-name="igrave" horiz-adv-x="266" unicode="ì" d="M-1 708h141l68 -148h-80zM81 0v504h104v-504h-104z"/>
<glyph glyph-name="iacute" horiz-adv-x="266" unicode="í" d="M139 560h-80l68 148h141zM81 0v504h104v-504h-104z"/>
<glyph glyph-name="icircumflex" horiz-adv-x="266" unicode="î" d="M57 566h-100l162 176h30l162 -176h-100l-77 80zM81 0v504h104v-504h-104z"/>
<glyph glyph-name="idieresis" horiz-adv-x="266" unicode="ï" d="M181 606q-18 18 -18 45t18 45t45 18t45 -18t18 -45t-18 -45t-45 -18t-45 18zM-5 606q-18 18 -18 45t18 45t45 18t45 -18t18 -45t-18 -45t-45 -18t-45 18zM81 0v504h104v-504h-104z"/>
<glyph glyph-name="eth" horiz-adv-x="582" unicode="ð" d="M193 371q-34 -49 -34 -119t34 -119t98 -49t98 49t34 119t-34 119t-98 49t-98 -49zM292 590l-35 -52l-68 48l33 48q-21 12 -82 40l51 76q48 -21 82 -41l35 52l68 -48l-34 -49q191 -147 191 -412q0 -110 -65 -186q-65 -74 -177 -74q-113 0 -178 74q-64 74 -64 186t64 185 q64 75 178 75q57 0 92 -27q-25 56 -91 105z"/>
<glyph glyph-name="ntilde" d="M175 577l-57 47q16 35 48 58t67 23q37 0 72 -21q35 -20 59 -20q33 0 66 40l57 -47q-16 -35 -48 -58t-67 -23q-38 0 -73 20q-35 21 -58 21q-33 0 -66 -40zM86 0v504h104v-86q27 45 70 69.5t93 24.5q68 0 108 -40t40 -111v-361h-104v328q0 92 -78 92q-52 0 -91 -59 q-38 -59 -38 -157v-204h-104z" unicode="ñ"/>
<glyph glyph-name="ograve" horiz-adv-x="594" unicode="ò" d="M172 708h141l68 -148h-80zM195 370q-36 -50 -36 -118q0 -70 36 -119q37 -49 102 -49t101 49q37 49 37 119q0 69 -37 118q-36 50 -101 50q-64 0 -102 -50zM116 67q-67 74 -67 185t67 185q68 75 181 75t180 -75q68 -76 68 -185t-68 -185q-67 -75 -180 -75t-181 75z"/>
<glyph glyph-name="oacute" horiz-adv-x="594" unicode="ó" d="M300 560h-80l68 148h141zM195 370q-36 -50 -36 -118q0 -70 36 -119q37 -49 102 -49t101 49q37 49 37 119q0 69 -37 118q-36 50 -101 50q-64 0 -102 -50zM116 67q-67 74 -67 185t67 185q68 75 181 75t180 -75q68 -76 68 -185t-68 -185q-67 -75 -180 -75t-181 75z"/>
<glyph glyph-name="ocircumflex" horiz-adv-x="594" unicode="ô" d="M220 566h-100l162 176h30l162 -176h-100l-77 80zM195 370q-36 -50 -36 -118q0 -70 36 -119q37 -49 102 -49t101 49q37 49 37 119q0 69 -37 118q-36 50 -101 50q-64 0 -102 -50zM116 67q-67 74 -67 185t67 185q68 75 181 75t180 -75q68 -76 68 -185t-68 -185 q-67 -75 -180 -75t-181 75z"/>
<glyph glyph-name="otilde" horiz-adv-x="594" unicode="õ" d="M169 577l-57 47q16 35 48 58t67 23q37 0 72 -21q35 -20 59 -20q33 0 66 40l57 -47q-16 -35 -48 -58t-67 -23q-38 0 -73 20q-34 21 -58 21q-33 0 -66 -40zM195 370q-36 -50 -36 -118q0 -70 36 -119q37 -49 102 -49t101 49q37 49 37 119q0 69 -37 118q-36 50 -101 50 q-64 0 -102 -50zM116 67q-67 74 -67 185t67 185q68 75 181 75t180 -75q68 -76 68 -185t-68 -185q-67 -75 -180 -75t-181 75z"/>
<glyph glyph-name="odieresis" horiz-adv-x="594" unicode="ö" d="M345 606q-18 18 -18 45t18 45t45 18t45 -18t18 -45t-18 -45t-45 -18t-45 18zM159 606q-18 18 -18 45t18 45t45 18t45 -18t18 -45t-18 -45t-45 -18t-45 18zM195 370q-36 -50 -36 -118q0 -70 36 -119q37 -49 102 -49t101 49q37 49 37 119q0 69 -37 118q-36 50 -101 50 q-64 0 -102 -50zM116 67q-67 74 -67 185t67 185q68 75 181 75t180 -75q68 -76 68 -185t-68 -185q-67 -75 -180 -75t-181 75z"/>
<glyph glyph-name="divide" horiz-adv-x="535" unicode="÷" d="M490 271h-445v92h445v-92zM214 552q22 22 53 22q30 0 52 -22t22 -52q0 -31 -22 -53q-21 -21 -52 -21q-32 0 -53 21t-21 53q0 31 21 52zM214 180q22 22 53 22q30 0 52 -22t22 -52q0 -31 -22 -53q-21 -21 -52 -21q-32 0 -53 21t-21 53q0 31 21 52z"/>
<glyph glyph-name="oslash" horiz-adv-x="594" unicode="ø" d="M159 252q0 -43 16 -82l184 234q-28 16 -62 16q-64 0 -102 -50q-36 -50 -36 -118zM435 252q0 43 -16 82l-184 -234q28 -16 62 -16q65 0 101 49q37 49 37 119zM174 22l-56 -72l-73 54l60 77q-56 73 -56 171q0 111 67 185q68 75 181 75q67 0 123 -30l56 72l73 -54l-60 -77 q56 -73 56 -171q0 -109 -68 -185q-67 -75 -180 -75q-67 0 -123 30z"/>
<glyph glyph-name="ugrave" d="M161 708h141l68 -148h-80zM494 504v-504h-104v86q-27 -45 -70 -69.5t-93 -24.5q-68 0 -108 40t-40 111v361h104v-328q0 -92 78 -92q53 0 90 58q39 59 39 158v204h104z" unicode="ù"/>
<glyph glyph-name="uacute" d="M282 560h-80l68 148h141zM494 504v-504h-104v86q-27 -45 -70 -69.5t-93 -24.5q-68 0 -108 40t-40 111v361h104v-328q0 -92 78 -92q53 0 90 58q39 59 39 158v204h104z" unicode="ú"/>
<glyph glyph-name="ucircumflex" d="M197 566h-100l162 176h30l162 -176h-100l-77 80zM494 504v-504h-104v86q-27 -45 -70 -69.5t-93 -24.5q-68 0 -108 40t-40 111v361h104v-328q0 -92 78 -92q53 0 90 58q39 59 39 158v204h104z" unicode="û"/>
<glyph glyph-name="udieresis" d="M338 606q-18 18 -18 45t18 45t45 18t45 -18t18 -45t-18 -45t-45 -18t-45 18zM152 606q-18 18 -18 45t18 45t45 18t45 -18t18 -45t-18 -45t-45 -18t-45 18zM494 504v-504h-104v86q-27 -45 -70 -69.5t-93 -24.5q-68 0 -108 40t-40 111v361h104v-328q0 -92 78 -92 q53 0 90 58q39 59 39 158v204h104z" unicode="ü"/>
<glyph glyph-name="yacute" horiz-adv-x="469" unicode="ý" d="M240 560h-80l68 148h141zM185 25l-177 479h110l119 -339l115 339h110l-255 -708h-104z"/>
<glyph glyph-name="thorn" horiz-adv-x="601" unicode="þ" d="M406 129q36 47 36 123q0 77 -36 122q-36 46 -93 46t-93 -46q-36 -45 -36 -122q0 -76 36 -123q36 -45 93 -45t93 45zM552 252q0 -124 -58 -192t-167 -68q-44 0 -83 20t-54 46v-262h-104v912h104v-260q17 24 58 44q42 20 77 20q110 0 168.5 -69t58.5 -191z"/>
<glyph glyph-name="OE" horiz-adv-x="1057" unicode="Œ" d="M521 539q-59 65 -149 65t-150 -65q-59 -65 -59 -189t59 -189q60 -65 150 -65t149 65q60 65 60 189t-60 189zM583 631v69h415v-104h-305v-172h246v-104h-246v-216h315v-104h-425v69q-89 -77 -211 -77q-136 0 -229 93q-92 95 -92 265t92 264q93 94 229 94q122 0 211 -77z "/>
<glyph glyph-name="oe" horiz-adv-x="945" unicode="œ" d="M670 420q-49 0 -81.5 -30t-41.5 -80h245q-7 49 -39 79.5t-83 30.5zM195 370q-36 -50 -36 -118q0 -70 36 -119q37 -49 102 -49t101 49q37 49 37 119q0 69 -37 118q-36 50 -101 50q-64 0 -102 -50zM902 268v-45h-357q0 -61 33.5 -100t91.5 -39q42 0 77.5 22.5t54.5 62.5 l89 -35q-39 -76 -89 -109t-132 -33q-118 0 -182 88q-67 -88 -191 -88q-113 0 -181 75q-67 74 -67 185t67 185q68 75 181 75q124 0 191 -88q64 88 182 88q58 0 104 -22t73 -58t41 -78t14 -86z"/>
<glyph glyph-name="Scaron" horiz-adv-x="530" unicode="Š" d="M277 762h-30l-162 176h100l77 -80l77 80h100zM454 590l-89 -59q-41 77 -104 77q-33 0 -53 -21.5t-20 -54.5q0 -64 106 -114q34 -15 53.5 -24.5t50 -29.5t47.5 -39.5t30 -50.5t13 -67q0 -97 -62 -156t-157 -59q-89 0 -150.5 53.5t-80.5 141.5l90 57q37 -148 141 -148 q47 0 77 29.5t30 75.5q0 32 -22 56.5t-55 40t-72 35.5t-72 41.5t-55 60t-22 89.5q0 78 53 131t130 53q127 0 193 -118z"/>
<glyph glyph-name="scaron" horiz-adv-x="453" unicode="š" d="M250 566h-30l-162 176h100l77 -80l77 80h100zM234 512q45 0 85 -21.5t64 -58.5l-66 -58q-36 46 -88 46q-22 0 -36 -13.5t-14 -36.5q0 -18 13 -31q20 -20 77 -41q52 -19 78 -37q58 -35 63 -109q0 -68 -48 -114q-47 -46 -127 -46q-68 0 -119 38t-76 97l88 48 q40 -91 111 -91q68 0 68 66q0 25 -26 40q-15 10 -26 14q-8 4 -34.5 14t-33.5 13q-108 45 -108 138q0 60 44 101q43 42 111 42z"/>
<glyph glyph-name="Ydieresis" horiz-adv-x="514" unicode="Ÿ" d="M306 802q-18 18 -18 45t18 45t45 18t45 -18t18 -45t-18 -45t-45 -18t-45 18zM120 802q-18 18 -18 45t18 45t45 18t45 -18t18 -45t-18 -45t-45 -18t-45 18zM202 300l-200 400h117l138 -291l138 291h117l-200 -400v-300h-110v300z"/>
<glyph glyph-name="circumflex" horiz-adv-x="412" unicode="ˆ" d="M129 566h-100l162 176h30l162 -176h-100l-77 80z"/>
<glyph glyph-name="tilde" horiz-adv-x="403" unicode="˜" d="M74 577l-57 47q16 35 48 58t67 23q38 0 72 -21q35 -20 59 -20q33 0 66 40l57 -47q-16 -35 -48 -58t-67 -23q-38 0 -73 20q-35 21 -58 21q-33 0 -66 -40z"/>
<glyph glyph-name="pi" horiz-adv-x="608" unicode="π" d="M138 410h-85v94h501v-94h-85v-410h-104v410h-123v-410h-104v410z"/>
<glyph glyph-name="uni2002" horiz-adv-x="475" unicode=" "/>
<glyph glyph-name="uni2003" horiz-adv-x="951" unicode=" "/>
<glyph glyph-name="uni2009" horiz-adv-x="190" unicode=" "/>
<glyph glyph-name="endash" horiz-adv-x="581" unicode="–" d="M513 271h-445v92h445v-92z"/>
<glyph glyph-name="emdash" horiz-adv-x="779" unicode="—" d="M711 271h-643v92h643v-92z"/>
<glyph glyph-name="quoteleft" horiz-adv-x="318" unicode="‘" d="M54 708h143l74 -222h-78z"/>
<glyph glyph-name="quotesinglbase" horiz-adv-x="318" unicode="‚" d="M125 -14h-78l74 222h143z"/>
<glyph glyph-name="quotedblleft" horiz-adv-x="516" unicode="“" d="M54 708h143l74 -222h-78zM252 708h143l74 -222h-78z"/>
<glyph glyph-name="quotedblright" horiz-adv-x="516" unicode="”" d="M323 486h-78l74 222h143zM125 486h-78l74 222h143z"/>
<glyph glyph-name="dagger" horiz-adv-x="466" unicode="†" d="M183 412h-127v92h127v246h100v-246h127v-92h-127v-462h-100v462z"/>
<glyph glyph-name="daggerdbl" horiz-adv-x="466" unicode="‡" d="M183 412h-127v92h127v246h100v-246h127v-92h-127v-124h127v-92h-127v-246h-100v246h-127v92h127v124z"/>
<glyph glyph-name="ellipsis" horiz-adv-x="854" unicode="…" d="M642 121q22 22 53 22q30 0 52 -22t22 -52q0 -31 -22 -53q-21 -21 -52 -21q-32 0 -53 21t-21 53q0 31 21 52zM374 121q22 22 53 22q30 0 52 -22t22 -52q0 -31 -22 -53q-21 -21 -52 -21q-32 0 -53 21t-21 53q0 31 21 52zM106 121q22 22 53 22q30 0 52 -22t22 -52 q0 -31 -22 -53q-21 -21 -52 -21q-32 0 -53 21t-21 53q0 31 21 52z"/>
<glyph glyph-name="perthousand" horiz-adv-x="1240" unicode="‰" d="M124 13l539 720l58 -45l-539 -720zM969 207q-20 -20 -20 -55q0 -36 20 -56q19 -21 54 -21t54 21q20 20 20 56q0 35 -20 55q-19 22 -54 22t-54 -22zM908 38q-47 47 -47 114q0 66 47 113t115 47t115 -47t47 -113q0 -67 -47 -114q-46 -46 -115 -46t-115 46zM569 207 q-20 -20 -20 -55q0 -36 20 -56q19 -21 54 -21t54 21q20 20 20 56q0 35 -20 55q-19 22 -54 22t-54 -22zM508 38q-47 47 -47 114q0 66 47 113t115 47t115 -47t47 -113q0 -67 -47 -114q-46 -46 -115 -46t-115 46zM163 603q-20 -20 -20 -55q0 -36 20 -56q19 -21 54 -21t54 21 q20 20 20 56q0 35 -20 55q-19 22 -54 22t-54 -22zM102 434q-47 47 -47 114q0 66 47 113t115 47t115 -47t47 -113q0 -67 -47 -114q-46 -46 -115 -46t-115 46z"/>
<glyph glyph-name="guilsinglleft" horiz-adv-x="392" unicode="‹" d="M339 68l-293 206v72l293 206v-107l-189 -135l189 -135v-107z"/>
<glyph glyph-name="guilsinglright" horiz-adv-x="392" unicode="›" d="M53 552l293 -206v-72l-293 -206v107l189 135l-189 135v107z"/>
<glyph glyph-name="fraction" horiz-adv-x="611" unicode="⁄" d="M7 13l539 720l58 -45l-539 -720z"/>
<glyph glyph-name="Euro" horiz-adv-x="633" unicode="€" d="M119 380h-90l46 92h52q21 115 90 175.5t173 60.5q142 0 204 -114l-88 -50q-43 70 -116 70q-128 0 -156 -142h213l-46 -92h-176v-60h222l-46 -92h-167q28 -142 156 -142q73 0 116 70l88 -50q-62 -114 -204 -114q-104 0 -173 60.5t-90 175.5h-98l46 92h44v60z"/>
<glyph glyph-name="trademark" horiz-adv-x="832" unicode="™" d="M465 300h-84v400h85l101 -244l101 244h85v-400h-84v226l-75 -189h-54l-75 189v-226zM130 624h-105v76h294v-76h-105v-324h-84v324z"/>
<glyph glyph-name="partialdiff" horiz-adv-x="609" unicode="∂" d="M327 420q-75 0 -123 -62t-48 -140q0 -62 27 -98t79 -36q76 0 123 63q47 65 47 144q0 129 -105 129zM46 213q0 128 79 213q80 86 214 86q63 0 98 -30q-20 134 -132 134q-35 0 -64 -21.5t-43 -59.5l-103 31q19 62 78 102q58 40 131 40q130 0 187.5 -83t57.5 -263 q0 -150 -66 -256q-72 -114 -235 -114q-94 0 -148 61q-54 62 -54 160z"/>
<glyph glyph-name="product" horiz-adv-x="567" unicode="∏" d="M194 0h-104v700h387v-700h-104v606h-179v-606z"/>
<glyph glyph-name="summation" horiz-adv-x="547" unicode="∑" d="M485 94v-94h-430v45l192 305l-192 305v45h430v-94h-288l154 -244v-24l-154 -244h288z"/>
<glyph glyph-name="minus" horiz-adv-x="571" unicode="−" d="M509 271h-445v92h445v-92z"/>
<glyph glyph-name="radical" horiz-adv-x="586" unicode="√" d="M303 148l162 560h98l-217 -708h-83l-98 295h-110v94h168z"/>
<glyph glyph-name="infinity" horiz-adv-x="884" unicode="∞" d="M625 260q46 0 73 26t27 73t-27 73t-73 26q-35 0 -70.5 -25t-60.5 -74q25 -49 60.5 -74t70.5 -25zM259 260q35 0 70.5 25t60.5 74q-25 49 -60.5 74t-70.5 25q-46 0 -73 -26t-27 -73t27 -73t73 -26zM640 168q-57 0 -110.5 26t-87.5 73q-34 -47 -87.5 -73t-110.5 -26 q-88 0 -138.5 52t-50.5 139t50.5 139t138.5 52q57 0 110.5 -26t87.5 -73q34 47 87.5 73t110.5 26q88 0 138.5 -52t50.5 -139t-50.5 -139t-138.5 -52z"/>
<glyph glyph-name="approxequal" horiz-adv-x="617" unicode="≈" d="M120 157l-56 60q19 43 59 72t83 29q42 0 105 -26t93 -26q53 0 92 47l56 -60q-19 -43 -59 -72t-83 -29q-42 0 -105 26q-61 26 -93 26q-53 0 -92 -47zM121 357l-56 60q19 43 59 72t83 29q44 0 105 -26t93 -26q53 0 92 47l56 -60q-19 -43 -59 -72t-83 -29q-42 0 -105 26 q-61 26 -93 26q-53 0 -92 -47z"/>
<glyph glyph-name="notequal" horiz-adv-x="565" unicode="≠" d="M251 347h-176v92h228l61 107l80 -46l-35 -61h81v-92h-134l-42 -74h176v-92h-228l-61 -107l-80 46l35 61h-81v92h134z"/>
<glyph glyph-name="lessequal" horiz-adv-x="565" unicode="≤" d="M509 0h-457v92h457v-92zM462 158l-364 192v104l364 192v-111l-254 -133l254 -133v-111z"/>
<glyph glyph-name="greaterequal" horiz-adv-x="565" unicode="≥" d="M56 92h457v-92h-457v92zM103 646l364 -192v-104l-364 -192v111l254 133l-254 133v111z"/>
<glyph glyph-name="lozenge" horiz-adv-x="590" unicode="◊" d="M167 350l128 -260l128 260l-128 259zM345 0h-100l-181 350l181 350h100l181 -350z"/>
</font>
</defs>
</svg>
